<?xml version="1.0" encoding="UTF-8" standalone="no"?><svg xmlns="http://www.w3.org/2000/svg" xmlns:xlink="http://www.w3.org/1999/xlink" contentStyleType="text/css" height="407px" preserveAspectRatio="none" style="width:642px;height:407px;background:#FFFFFF;" version="1.1" viewBox="0 0 642 407" width="642px" zoomAndPan="magnify"><defs/><g><rect height="26.2969" style="stroke:#00000000;stroke-width:1.0;fill:none;" width="293" x="174" y="10"/><text fill="#000000" font-family="sans-serif" font-size="14" font-weight="bold" lengthAdjust="spacing" textLength="283" x="179" y="27.9951">Document tagging with Investor Id</text><line style="stroke:#181818;stroke-width:0.5;stroke-dasharray:5.0,5.0;" x1="28" x2="28" y1="118.5938" y2="326.5234"/><line style="stroke:#181818;stroke-width:0.5;stroke-dasharray:5.0,5.0;" x1="323" x2="323" y1="118.5938" y2="326.5234"/><text fill="#000000" font-family="sans-serif" font-size="14" lengthAdjust="spacing" textLength="40" x="5" y="115.292">Actor</text><ellipse cx="28" cy="50.7969" fill="#E2E2F0" rx="8" ry="8" style="stroke:#181818;stroke-width:0.5;"/><path d="M28,58.7969 L28,85.7969 M15,66.7969 L41,66.7969 M28,85.7969 L15,100.7969 M28,85.7969 L41,100.7969 " fill="none" style="stroke:#181818;stroke-width:0.5;"/><text fill="#000000" font-family="sans-serif" font-size="14" lengthAdjust="spacing" textLength="40" x="5" y="338.5186">Actor</text><ellipse cx="28" cy="350.3203" fill="#E2E2F0" rx="8" ry="8" style="stroke:#181818;stroke-width:0.5;"/><path d="M28,358.3203 L28,385.3203 M15,366.3203 L41,366.3203 M28,385.3203 L15,400.3203 M28,385.3203 L41,400.3203 " fill="none" style="stroke:#181818;stroke-width:0.5;"/><rect fill="#E2E2F0" height="61.7531" rx="2.5" ry="2.5" style="stroke:#181818;stroke-width:0.5;" width="134" x="256" y="55.8407"/><text fill="#000000" font-family="sans-serif" font-size="18" font-weight="bold" lengthAdjust="spacing" textLength="40" x="303" y="79.5487">App</text><line style="stroke:#181818;stroke-width:1.0;" x1="256" x2="390" y1="88.7938" y2="88.7938"/><text fill="#000000" font-family="monospace" font-size="14" lengthAdjust="spacing" textLength="120" x="263" y="106.7578">Java Springboot</text><rect fill="#E2E2F0" height="61.7531" rx="2.5" ry="2.5" style="stroke:#181818;stroke-width:0.5;" width="134" x="256" y="325.5234"/><text fill="#000000" font-family="sans-serif" font-size="18" font-weight="bold" lengthAdjust="spacing" textLength="40" x="303" y="349.2314">App</text><line style="stroke:#181818;stroke-width:1.0;" x1="256" x2="390" y1="358.4766" y2="358.4766"/><text fill="#000000" font-family="monospace" font-size="14" lengthAdjust="spacing" textLength="120" x="263" y="376.4405">Java Springboot</text><polygon fill="#181818" points="311,160.8594,321,164.8594,311,168.8594,315,164.8594" style="stroke:#181818;stroke-width:1.0;"/><line style="stroke:#181818;stroke-width:1.0;" x1="28" x2="317" y1="164.8594" y2="164.8594"/><text fill="#000000" font-family="sans-serif" font-size="13" lengthAdjust="spacing" textLength="177" x="35" y="144.6606">post /tagDocument request</text><text fill="#000000" font-family="sans-serif" font-size="13" lengthAdjust="spacing" textLength="235" x="39" y="159.7935">with pdf document &amp; mapping sheet</text><line style="stroke:#181818;stroke-width:1.0;" x1="323" x2="365" y1="224.2578" y2="224.2578"/><line style="stroke:#181818;stroke-width:1.0;" x1="365" x2="365" y1="224.2578" y2="237.2578"/><line style="stroke:#181818;stroke-width:1.0;" x1="324" x2="365" y1="237.2578" y2="237.2578"/><polygon fill="#181818" points="334,233.2578,324,237.2578,334,241.2578,330,237.2578" style="stroke:#181818;stroke-width:1.0;"/><text fill="#000000" font-family="sans-serif" font-size="13" lengthAdjust="spacing" textLength="236" x="330" y="188.9263">1) Read the document page by page</text><text fill="#000000" font-family="sans-serif" font-size="13" lengthAdjust="spacing" textLength="139" x="330" y="204.0591">2) Read the page title</text><text fill="#000000" font-family="sans-serif" font-size="13" lengthAdjust="spacing" textLength="279" x="330" y="219.1919">3) Find the inverstor id from mapping sheet</text><line style="stroke:#181818;stroke-width:1.0;" x1="323" x2="365" y1="266.3906" y2="266.3906"/><line style="stroke:#181818;stroke-width:1.0;" x1="365" x2="365" y1="266.3906" y2="279.3906"/><line style="stroke:#181818;stroke-width:1.0;" x1="324" x2="365" y1="279.3906" y2="279.3906"/><polygon fill="#181818" points="334,275.3906,324,279.3906,334,283.3906,330,279.3906" style="stroke:#181818;stroke-width:1.0;"/><text fill="#000000" font-family="sans-serif" font-size="13" lengthAdjust="spacing" textLength="305" x="330" y="261.3247">add the investor id on all pages as per mapping</text><polygon fill="#181818" points="39,304.5234,29,308.5234,39,312.5234,35,308.5234" style="stroke:#181818;stroke-width:1.0;"/><line style="stroke:#181818;stroke-width:1.0;" x1="33" x2="322" y1="308.5234" y2="308.5234"/><text fill="#000000" font-family="sans-serif" font-size="13" lengthAdjust="spacing" textLength="271" x="45" y="303.4575">returns the tagged document as response</text><!--MD5=[36331e5555bd170ee92d484bb617ee9f]
@startuml
title "Document tagging with Investor Id"

actor       Actor       as User
participant App[
    =App
    - - - -
    ""Java Springboot""
]

User -> App : post /tagDocument request \n with pdf document & mapping sheet
App ->  App : 1) Read the document page by page\n2) Read the page title\n3) Find the inverstor id from mapping sheet
App ->  App : add the investor id on all pages as per mapping
App -> User : returns the tagged document as response
@enduml

PlantUML version 1.2022.4beta1(Unknown compile time)
(GPL source distribution)
Java Runtime: Java(TM) SE Runtime Environment
JVM: Java HotSpot(TM) 64-Bit Server VM
Default Encoding: UTF-8
Language: en
Country: US
--></g></svg>