<?xml version="1.0" encoding="UTF-8" standalone="no"?><svg xmlns="http://www.w3.org/2000/svg" xmlns:xlink="http://www.w3.org/1999/xlink" contentStyleType="text/css" height="392px" preserveAspectRatio="none" style="width:733px;height:392px;background:#FFFFFF;" version="1.1" viewBox="0 0 733 392" width="733px" zoomAndPan="magnify"><defs/><g><rect height="26.2969" style="stroke:#00000000;stroke-width:1.0;fill:none;" width="293" x="219.5" y="10"/><text fill="#000000" font-family="sans-serif" font-size="14" font-weight="bold" lengthAdjust="spacing" textLength="283" x="224.5" y="27.9951">Document tagging with Investor Id</text><line style="stroke:#181818;stroke-width:0.5;stroke-dasharray:5.0,5.0;" x1="28" x2="28" y1="118.5938" y2="311.3906"/><line style="stroke:#181818;stroke-width:0.5;stroke-dasharray:5.0,5.0;" x1="323" x2="323" y1="118.5938" y2="311.3906"/><text fill="#000000" font-family="sans-serif" font-size="14" lengthAdjust="spacing" textLength="40" x="5" y="115.292">Actor</text><ellipse cx="28" cy="50.7969" fill="#E2E2F0" rx="8" ry="8" style="stroke:#181818;stroke-width:0.5;"/><path d="M28,58.7969 L28,85.7969 M15,66.7969 L41,66.7969 M28,85.7969 L15,100.7969 M28,85.7969 L41,100.7969 " fill="none" style="stroke:#181818;stroke-width:0.5;"/><text fill="#000000" font-family="sans-serif" font-size="14" lengthAdjust="spacing" textLength="40" x="5" y="323.3857">Actor</text><ellipse cx="28" cy="335.1875" fill="#E2E2F0" rx="8" ry="8" style="stroke:#181818;stroke-width:0.5;"/><path d="M28,343.1875 L28,370.1875 M15,351.1875 L41,351.1875 M28,370.1875 L15,385.1875 M28,370.1875 L41,385.1875 " fill="none" style="stroke:#181818;stroke-width:0.5;"/><rect fill="#E2E2F0" height="30.2969" rx="2.5" ry="2.5" style="stroke:#181818;stroke-width:0.5;" width="44" x="301" y="87.2969"/><text fill="#000000" font-family="sans-serif" font-size="14" lengthAdjust="spacing" textLength="30" x="308" y="107.292">App</text><rect fill="#E2E2F0" height="30.2969" rx="2.5" ry="2.5" style="stroke:#181818;stroke-width:0.5;" width="44" x="301" y="310.3906"/><text fill="#000000" font-family="sans-serif" font-size="14" lengthAdjust="spacing" textLength="30" x="308" y="330.3857">App</text><polygon fill="#181818" points="311,160.8594,321,164.8594,311,168.8594,315,164.8594" style="stroke:#181818;stroke-width:1.0;"/><line style="stroke:#181818;stroke-width:1.0;" x1="28" x2="317" y1="164.8594" y2="164.8594"/><text fill="#000000" font-family="sans-serif" font-size="13" lengthAdjust="spacing" textLength="177" x="35" y="144.6606">post /tagDocument request</text><text fill="#000000" font-family="sans-serif" font-size="13" lengthAdjust="spacing" textLength="235" x="39" y="159.7935">with pdf document &amp; mapping sheet</text><line style="stroke:#181818;stroke-width:1.0;" x1="323" x2="365" y1="209.125" y2="209.125"/><line style="stroke:#181818;stroke-width:1.0;" x1="365" x2="365" y1="209.125" y2="222.125"/><line style="stroke:#181818;stroke-width:1.0;" x1="324" x2="365" y1="222.125" y2="222.125"/><polygon fill="#181818" points="334,218.125,324,222.125,334,226.125,330,222.125" style="stroke:#181818;stroke-width:1.0;"/><text fill="#000000" font-family="sans-serif" font-size="13" lengthAdjust="spacing" textLength="171" x="330" y="188.9263">read the pdf page by page</text><text fill="#000000" font-family="sans-serif" font-size="13" lengthAdjust="spacing" textLength="396" x="330" y="204.0591">read the page title &amp; find the inverstor id from mapping sheet</text><line style="stroke:#181818;stroke-width:1.0;" x1="323" x2="365" y1="251.2578" y2="251.2578"/><line style="stroke:#181818;stroke-width:1.0;" x1="365" x2="365" y1="251.2578" y2="264.2578"/><line style="stroke:#181818;stroke-width:1.0;" x1="324" x2="365" y1="264.2578" y2="264.2578"/><polygon fill="#181818" points="334,260.2578,324,264.2578,334,268.2578,330,264.2578" style="stroke:#181818;stroke-width:1.0;"/><text fill="#000000" font-family="sans-serif" font-size="13" lengthAdjust="spacing" textLength="336" x="330" y="246.1919">modify the document to add investor id on all pages</text><polygon fill="#181818" points="39,289.3906,29,293.3906,39,297.3906,35,293.3906" style="stroke:#181818;stroke-width:1.0;"/><line style="stroke:#181818;stroke-width:1.0;" x1="33" x2="322" y1="293.3906" y2="293.3906"/><text fill="#000000" font-family="sans-serif" font-size="13" lengthAdjust="spacing" textLength="271" x="45" y="288.3247">returns the tagged document as response</text><!--MD5=[92739973dd48d70b7ad5ed79ebd888a0]
@startuml
title "Document tagging with Investor Id"

actor       Actor       as User
participant App         as App

User1 -> App : post /tagDocument request \n with pdf document & mapping sheet
App ->  App : read the pdf page by page\nread the page title & find the inverstor id from mapping sheet
App ->  App : modify the document to add investor id on all pages
App -> User : returns the tagged document as response
@enduml

PlantUML version 1.2022.4beta1(Unknown compile time)
(GPL source distribution)
Java Runtime: Java(TM) SE Runtime Environment
JVM: Java HotSpot(TM) 64-Bit Server VM
Default Encoding: UTF-8
Language: en
Country: US
--></g></svg>